<svg xmlns="http://www.w3.org/2000/svg" viewBox="0 0 13.06 18.95"><defs><style>.cls-1{fill:#fff;}</style></defs><g id="Layer_2" data-name="Layer 2"><g id="Layer_1-2" data-name="Layer 1"><path class="cls-1" d="M11.67,9.12h-.09a1.4,1.4,0,0,0-.58.12A1.4,1.4,0,0,0,9.64,8.15h-.1a1.42,1.42,0,0,0-.65.16A1.4,1.4,0,0,0,7.6,7.46H7.51A1.46,1.46,0,0,0,7,7.57v-2A1.39,1.39,0,0,0,5.57,4.19H5.48A1.39,1.39,0,0,0,4.09,5.58v5.11l-.64.48a2.31,2.31,0,0,0-.4,3.3l2,2.44v1A1.06,1.06,0,0,0,6.09,19H11a1.07,1.07,0,0,0,1.07-1.07V17a4.46,4.46,0,0,0,1-2.79V10.51A1.39,1.39,0,0,0,11.67,9.12Zm.55,5.05a3.66,3.66,0,0,1-.87,2.37.39.39,0,0,0-.11.27v1.07a.22.22,0,0,1-.22.23H6.09a.22.22,0,0,1-.22-.23V16.76a.37.37,0,0,0-.1-.26L3.71,13.94a1.42,1.42,0,0,1-.32-1.1,1.47,1.47,0,0,1,.57-1l.13-.1V12.9a.42.42,0,0,0,.42.42.42.42,0,0,0,.42-.42v-2h0V5.58A.55.55,0,0,1,5.48,5h.09a.55.55,0,0,1,.55.55V8.85h0v2.72a.42.42,0,0,0,.42.42h0A.42.42,0,0,0,7,11.57V8.85a.55.55,0,0,1,.55-.55H7.6a.55.55,0,0,1,.55.55v.69h0v2a.42.42,0,0,0,.42.42h0A.42.42,0,0,0,9,11.57v-2A.54.54,0,0,1,9.54,9h.1a.55.55,0,0,1,.55.55v2a.43.43,0,0,0,.43.42h0a.42.42,0,0,0,.42-.42V10.51a.55.55,0,0,1,.55-.55h.09a.55.55,0,0,1,.55.55v3.66Z"/><path class="cls-1" d="M10.53,5.37H8a.42.42,0,0,1,0-.84h2.57a.42.42,0,0,1,0,.84Z"/><path class="cls-1" d="M5.48,3.41A.42.42,0,0,1,5.05,3V.42a.43.43,0,0,1,.85,0V3A.42.42,0,0,1,5.48,3.41Z"/><path class="cls-1" d="M7.28,3.88A.44.44,0,0,1,7,3.76a.44.44,0,0,1,0-.6L8.8,1.35a.42.42,0,0,1,.6,0,.42.42,0,0,1,0,.59L7.58,3.76A.42.42,0,0,1,7.28,3.88Z"/><path class="cls-1" d="M3,5.37H.42a.42.42,0,0,1,0-.84H3a.42.42,0,0,1,0,.84Z"/><path class="cls-1" d="M3.67,3.88a.44.44,0,0,1-.3-.12L1.56,1.94a.41.41,0,0,1,0-.59.41.41,0,0,1,.59,0L4,3.16a.44.44,0,0,1,0,.6A.42.42,0,0,1,3.67,3.88Z"/></g></g></svg>